<?xml version="1.0" standalone="no"?>
<!DOCTYPE svg PUBLIC "-//W3C//DTD SVG 20010904//EN"
 "http://www.w3.org/TR/2001/REC-SVG-20010904/DTD/svg10.dtd">
<svg version="1.0" xmlns="http://www.w3.org/2000/svg"
 width="700.000000pt" height="700.000000pt" viewBox="0 0 700.000000 700.000000"
 preserveAspectRatio="xMidYMid meet">
<metadata>
Created by potrace 1.14, written by Peter Selinger 2001-2017
</metadata>
<g transform="translate(0.000000,700.000000) scale(0.100000,-0.100000)"
fill="#000000" stroke="none">
<path d="M2186 6833 c-3 -10 -8 -43 -11 -73 -3 -30 -8 -66 -10 -80 -2 -14 -7
-54 -10 -90 -4 -36 -8 -72 -10 -80 -2 -8 -6 -40 -10 -71 -3 -31 -7 -66 -10
-77 -2 -11 -6 -49 -10 -84 -3 -35 -8 -76 -10 -93 -7 -44 -39 -298 -59 -465 -2
-22 -8 -25 -42 -24 -37 0 -181 13 -214 19 -21 4 -106 14 -165 20 -27 3 -72 7
-100 11 -27 3 -66 7 -85 9 -19 2 -56 6 -82 9 -59 7 -115 13 -193 21 -33 3 -78
8 -100 11 -22 3 -53 7 -70 9 -102 13 -256 27 -260 23 -3 -3 2 -24 9 -49 19
-58 62 -200 135 -444 152 -513 210 -704 270 -898 l18 -58 -36 -27 c-19 -15
-42 -32 -51 -39 -8 -6 -127 -92 -265 -190 -137 -98 -261 -186 -275 -196 -42
-31 -197 -141 -220 -157 -12 -8 -43 -31 -69 -50 -26 -19 -60 -44 -76 -55 l-28
-20 302 -215 c167 -118 310 -221 319 -228 9 -7 95 -69 191 -137 96 -69 181
-131 189 -138 11 -12 -52 -57 -417 -301 -237 -158 -431 -290 -430 -294 0 -4
195 -137 433 -295 l433 -288 -19 -92 c-10 -50 -20 -100 -22 -112 -2 -11 -11
-54 -19 -95 -9 -41 -18 -86 -20 -100 -3 -14 -17 -83 -31 -155 -14 -71 -28
-140 -31 -153 -4 -21 -1 -23 23 -18 15 3 41 8 57 11 17 3 41 7 55 10 33 7 197
36 235 42 17 2 41 6 55 9 22 4 259 46 335 59 17 3 67 12 112 20 45 9 99 18
120 20 l38 5 63 -131 c165 -344 409 -602 716 -758 176 -90 294 -126 506 -157
25 -3 101 -6 170 -5 547 2 1024 297 1323 818 37 65 89 173 101 211 4 12 12 22
18 22 10 0 218 -35 268 -45 43 -9 204 -36 232 -40 15 -2 51 -8 80 -14 29 -6
67 -13 83 -16 17 -2 82 -13 145 -24 63 -12 129 -23 145 -26 17 -3 36 -8 43
-10 28 -10 28 8 1 117 -16 62 -31 122 -33 133 -3 11 -22 90 -44 175 l-39 155
56 65 c31 36 58 67 61 70 3 3 71 82 150 175 80 94 149 175 155 181 70 76 440
517 440 525 0 5 -160 73 -355 151 -195 78 -356 142 -358 143 -2 2 193 296 433
655 239 359 434 654 433 656 -5 4 -101 18 -238 34 -52 6 -111 13 -130 16 -19
3 -107 14 -195 25 -88 10 -176 21 -195 24 -46 6 -184 23 -235 30 -22 3 -68 8
-102 11 -35 4 -63 8 -63 10 0 2 103 168 199 321 50 80 119 189 236 378 65 105
133 213 150 240 102 162 135 218 131 222 -3 3 -329 5 -725 5 l-721 0 -5 32
c-3 17 -14 105 -25 196 -12 91 -23 176 -25 190 -2 14 -7 54 -10 90 -4 36 -9
73 -10 82 -2 9 -6 45 -10 80 -3 35 -10 90 -15 123 -9 62 -11 77 -30 230 -6 50
-13 100 -15 110 -2 11 -4 23 -4 27 -1 4 -34 -8 -73 -27 -138 -62 -189 -85
-193 -85 -2 0 -39 -16 -82 -36 -43 -20 -157 -71 -253 -114 -268 -119 -538
-239 -608 -271 -86 -40 -108 -44 -135 -27 -12 8 -53 32 -92 53 -38 21 -288
160 -555 308 -684 380 -628 351 -634 330z"/>
</g>
</svg>
